REM DIRINDEX 1\2\3,1\2\4,1\2\5,1\2\6
REM DIRNAME folder01,folder02,folder03,folder04,folder05,folder06
TITLE ""
FILE "086 086.mp3" MP3
  TRACK 01 AUDIO
    TITLE "0:"
    INDEX 01 00:00:00
  TRACK 02 AUDIO
    TITLE "3:cjc157_3241"
    INDEX 01 00:00:11
  TRACK 03 AUDIO
    TITLE "0:"
    INDEX 01 00:01:30
  TRACK 04 AUDIO
    TITLE "4:cjc157_3242"
    INDEX 01 00:02:02
  TRACK 05 AUDIO
    TITLE "0:"
    INDEX 01 00:03:23
  TRACK 06 AUDIO
    TITLE "5:cjc157_3243"
    INDEX 01 00:03:64
  TRACK 07 AUDIO
    TITLE "0:"
    INDEX 01 00:05:50
  TRACK 08 AUDIO
    TITLE "3:cjc157_3244"
    INDEX 01 00:06:24
  TRACK 09 AUDIO
    TITLE "0:"
    INDEX 01 00:07:29
  TRACK 10 AUDIO
    TITLE "4:cjc157_3245"
    INDEX 01 00:08:01
  TRACK 11 AUDIO
    TITLE "0:"
    INDEX 01 00:09:14
  TRACK 12 AUDIO
    TITLE "5:cjc157_3246"
    INDEX 01 00:09:57
  TRACK 13 AUDIO
    TITLE "0:"
    INDEX 01 00:11:50
  TRACK 14 AUDIO
    TITLE "3:cjc157_3247"
    INDEX 01 00:12:26
  TRACK 15 AUDIO
    TITLE "0:"
    INDEX 01 00:13:41
  TRACK 16 AUDIO
    TITLE "4:cjc157_3248"
    INDEX 01 00:14:15
  TRACK 17 AUDIO
    TITLE "0:"
    INDEX 01 00:15:28
  TRACK 18 AUDIO
    TITLE "5:cjc157_3249"
    INDEX 01 00:15:70
  TRACK 19 AUDIO
    TITLE "0:"
    INDEX 01 00:17:65
  TRACK 20 AUDIO
    TITLE "5:cjc157_3250"
    INDEX 01 00:18:35
  TRACK 21 AUDIO
    TITLE "0:"
    INDEX 01 00:19:62
  TRACK 22 AUDIO
    TITLE "3:cjc157_3251"
    INDEX 01 00:20:32
  TRACK 23 AUDIO
    TITLE "0:"
    INDEX 01 00:21:51
  TRACK 24 AUDIO
    TITLE "4:cjc157_3252"
    INDEX 01 00:22:21
  TRACK 25 AUDIO
    TITLE "0:"
    INDEX 01 00:23:48
  TRACK 26 AUDIO
    TITLE "5:cjc157_3253"
    INDEX 01 00:24:12
  TRACK 27 AUDIO
    TITLE "0:"
    INDEX 01 00:26:24
  TRACK 28 AUDIO
    TITLE "5:cjc157_3254"
    INDEX 01 00:26:67
  TRACK 29 AUDIO
    TITLE "0:"
    INDEX 01 00:29:11
  TRACK 30 AUDIO
    TITLE "5:cjc157_3255"
    INDEX 01 00:29:58
  TRACK 31 AUDIO
    TITLE "0:"
    INDEX 01 00:32:33
  TRACK 32 AUDIO
    TITLE "3:cjc157_3256"
    INDEX 01 00:33:03
  TRACK 33 AUDIO
    TITLE "0:"
    INDEX 01 00:34:24
  TRACK 34 AUDIO
    TITLE "4:cjc157_3257"
    INDEX 01 00:34:69
  TRACK 35 AUDIO
    TITLE "0:"
    INDEX 01 00:36:23
  TRACK 36 AUDIO
    TITLE "5:cjc157_3258"
    INDEX 01 00:36:68
  TRACK 37 AUDIO
    TITLE "0:"
    INDEX 01 00:38:61
  TRACK 38 AUDIO
    TITLE "5:cjc157_3259"
    INDEX 01 00:39:33
  TRACK 39 AUDIO
    TITLE "0:"
    INDEX 01 00:41:26
  TRACK 40 AUDIO
    TITLE "5:cjc157_3260"
    INDEX 01 00:41:73
  TRACK 41 AUDIO
    TITLE "0:"
    INDEX 01 00:44:16
  TRACK 42 AUDIO
    TITLE "3:cjc157_3261"
    INDEX 01 00:44:63
  TRACK 43 AUDIO
    TITLE "0:"
    INDEX 01 00:46:07
  TRACK 44 AUDIO
    TITLE "4:cjc157_3262"
    INDEX 01 00:46:56
  TRACK 45 AUDIO
    TITLE "0:"
    INDEX 01 00:48:00
  TRACK 46 AUDIO
    TITLE "5:cjc157_3263"
    INDEX 01 00:48:51
  TRACK 47 AUDIO
    TITLE "0:"
    INDEX 01 00:51:54
  TRACK 48 AUDIO
    TITLE "5:cjc157_3264"
    INDEX 01 00:52:22
  TRACK 49 AUDIO
    TITLE "0:"
    INDEX 01 00:55:61
  TRACK 50 AUDIO
    TITLE "5:cjc157_3265"
    INDEX 01 00:56:27
  TRACK 51 AUDIO
    TITLE "0:"
    INDEX 01 00:57:64
  TRACK 52 AUDIO
    TITLE "3:cjc157_3266"
    INDEX 01 00:58:32
  TRACK 53 AUDIO
    TITLE "0:"
    INDEX 01 00:59:47
  TRACK 54 AUDIO
    TITLE "4:cjc157_3267"
    INDEX 01 01:00:17
  TRACK 55 AUDIO
    TITLE "0:"
    INDEX 01 01:01:23
  TRACK 56 AUDIO
    TITLE "5:cjc157_3268"
    INDEX 01 01:01:68
  TRACK 57 AUDIO
    TITLE "0:"
    INDEX 01 01:04:03
  TRACK 58 AUDIO
    TITLE "5:cjc157_3269"
    INDEX 01 01:04:43
  TRACK 59 AUDIO
    TITLE "0:"
    INDEX 01 01:07:49
  TRACK 60 AUDIO
    TITLE "5:cjc157_3270"
    INDEX 01 01:08:19
  TRACK 61 AUDIO
    TITLE "0:"
    INDEX 01 01:10:22
  TRACK 62 AUDIO
    TITLE "5:cjc157_3271"
    INDEX 01 01:10:63
  TRACK 63 AUDIO
    TITLE "0:"
    INDEX 01 01:13:26
  TRACK 64 AUDIO
    TITLE "3:cjc157_3272"
    INDEX 01 01:14:00
  TRACK 65 AUDIO
    TITLE "0:"
    INDEX 01 01:15:27
  TRACK 66 AUDIO
    TITLE "4:cjc157_3273"
    INDEX 01 01:15:72
  TRACK 67 AUDIO
    TITLE "0:"
    INDEX 01 01:16:60
  TRACK 68 AUDIO
    TITLE "5:cjc157_3274"
    INDEX 01 01:17:41
  TRACK 69 AUDIO
    TITLE "0:"
    INDEX 01 01:19:72
  TRACK 70 AUDIO
    TITLE "5:cjc157_3275"
    INDEX 01 01:20:44
  TRACK 71 AUDIO
    TITLE "0:"
    INDEX 01 01:22:46
  TRACK 72 AUDIO
    TITLE "3:cjc157_3276"
    INDEX 01 01:23:15
  TRACK 73 AUDIO
    TITLE "0:"
    INDEX 01 01:24:08
  TRACK 74 AUDIO
    TITLE "4:cjc157_3277"
    INDEX 01 01:24:55
  TRACK 75 AUDIO
    TITLE "0:"
    INDEX 01 01:26:01
  TRACK 76 AUDIO
    TITLE "5:cjc157_3278"
    INDEX 01 01:26:44
  TRACK 77 AUDIO
    TITLE "0:"
    INDEX 01 01:28:33
  TRACK 78 AUDIO
    TITLE "5:cjc157_3279"
    INDEX 01 01:29:09
  TRACK 79 AUDIO
    TITLE "0:"
    INDEX 01 01:30:50
  TRACK 80 AUDIO
    TITLE "3:cjc157_3280"
    INDEX 01 01:31:24
  TRACK 81 AUDIO
    TITLE "0:"
    INDEX 01 01:32:29
  TRACK 82 AUDIO
    TITLE "4:cjc157_3281"
    INDEX 01 01:33:01
  TRACK 83 AUDIO
    TITLE "0:"
    INDEX 01 01:34:14
  TRACK 84 AUDIO
    TITLE "5:cjc157_3282"
    INDEX 01 01:34:61
  TRACK 85 AUDIO
    TITLE "0:"
    INDEX 01 01:36:39
  TRACK 86 AUDIO
    TITLE "5:cjc157_3283"
    INDEX 01 01:37:11
  TRACK 87 AUDIO
    TITLE "0:"
    INDEX 01 01:39:19
